<svg class="SVGInline-svg SVGInline--cleaned-svg SVG-svg" height="16" width="16" xmlns="http://www.w3.org/2000/svg" viewBox="0 0 16 16" name="AR"><g fill="none" fill-rule="evenodd" transform="translate(0 2)"><path fill="#45B2E8" d="M1.994 0h12.012C15.106 0 16 .895 16 2v2H0V2C0 .888.893 0 1.994 0ZM0 8h16v2c0 1.112-.893 2-1.994 2H1.994C.894 12 0 11.105 0 10V8Z"></path><path fill="#F6F9FC" d="M0 4h16v4H0z"></path><path fill="#EAEEF3" fill-rule="nonzero" d="M15 8V4h1v4h-1ZM0 4h1v4H0V4Z"></path><circle cx="8" cy="6" r="1" fill="#F4B32E"></circle></g></svg>