<svg class="SVGInline-svg SVGInline--cleaned-svg SVG-svg" height="16" width="16" xmlns="http://www.w3.org/2000/svg" viewBox="0 0 16 16" name="AW"><g fill="none" fill-rule="evenodd" transform="translate(0 2)"><path fill="#F4B32E" d="M0 7h16v3H0z"></path><path fill="#A68527" fill-opacity="0.1" fill-rule="nonzero" d="M15 9V6h1v3h-1ZM0 6h1v3H0V6Z"></path><path fill="#217AB7" d="M1.994 0h12.012C15.106 0 16 .896 16 2.001V7H0V2.001A2 2 0 0 1 1.994 0ZM0 8h16v1H0V8Zm0 2h16v1c0 .556-.448 1-1 1H1c-.555 0-1-.448-1-1v-1Z"></path><circle cx="3.5" cy="3.5" r="1.5" fill="#E25950"></circle></g></svg>