<svg class="SVGInline-svg SVGInline--cleaned-svg SVG-svg" height="16" width="16" viewBox="0 0 16 16" fill="none" xmlns="http://www.w3.org/2000/svg" name="AX"><path fill="#0064AD" d="M2 2h12a2 2 0 0 1 2 2v8a2 2 0 0 1-2 2H2a2 2 0 0 1-2-2V4a2 2 0 0 1 2-2Z"></path><path fill="#FFD300" d="M16 9.539H8V14H4.923V9.539H0V6.461h4.923V2H8v4.461h8z"></path><path fill="#DA0E15" d="M16 8.616H7.077V14H5.846V8.616H0V7.384h5.846V2h1.231v5.384H16z"></path><path fill="#004F8B" d="M15 9.539V6.461h1v3.078ZM4.923 13H8v1H4.923Zm0-11H8v1H4.923ZM0 6.461h1v3.078H0Z" opacity="0.1"></path></svg>