<svg class="SVGInline-svg SVGInline--cleaned-svg SVG-svg" height="16" width="16" xmlns="http://www.w3.org/2000/svg" viewBox="0 0 16 16" name="AZ"><g fill="none" fill-rule="evenodd"><path fill="#217AB7" d="M1.994 2A1.992 1.992 0 0 0 0 4v2h16V4c0-1.105-.895-2-1.994-2H1.994Z"></path><path fill="#E25950" d="M0 6h16v4H0z"></path><path fill="#24B47E" d="M0 10v2c0 1.105.895 2 1.994 2h12.012A1.992 1.992 0 0 0 16 12v-2H0Z"></path><path fill="#FFF" d="M8 6.268a1.75 1.75 0 1 0 0 3.464 2 2 0 1 1 0-3.464ZM9 9a1 1 0 1 1 0-2 1 1 0 0 1 0 2Z"></path></g></svg>