<svg class="SVGInline-svg SVGInline--cleaned-svg SVG-svg" height="16" width="16" xmlns="http://www.w3.org/2000/svg" viewBox="0 0 16 16" name="BA"><g fill="none" fill-rule="evenodd" transform="translate(0 2)"><rect width="16" height="12" fill="#43458B" rx="2"></rect><path fill="#FCD669" d="M2 0h12v12z"></path><path fill="#FFF" d="M2 1.5a.5.5 0 1 1 1 0 .5.5 0 0 1-1 0Zm1 1a.5.5 0 1 1 1 0 .5.5 0 0 1-1 0Zm1 1a.5.5 0 1 1 1 0 .5.5 0 0 1-1 0Zm1 1a.5.5 0 1 1 1 0 .5.5 0 0 1-1 0Zm1 1a.5.5 0 1 1 1 0 .5.5 0 0 1-1 0Zm1 1a.5.5 0 1 1 1 0 .5.5 0 0 1-1 0Zm1 1a.5.5 0 1 1 1 0 .5.5 0 0 1-1 0Zm1 1a.5.5 0 1 1 1 0 .5.5 0 0 1-1 0Zm1 1a.5.5 0 1 1 1 0 .5.5 0 0 1-1 0Zm1 1a.5.5 0 1 1 1 0 .5.5 0 0 1-1 0Z"></path><path fill="#FFF" d="M12 11.5a.5.5 0 1 1 1 0 .5.5 0 0 1-1 0ZM1 .5a.5.5 0 1 1 1 0 .5.5 0 0 1-1 0Z" opacity="0.5"></path><path fill="#A68527" fill-opacity="0.1" fill-rule="nonzero" d="M13 12v-1h1v1h-1ZM2 0h12v1H2V0Z"></path></g></svg>