<svg class="SVGInline-svg SVGInline--cleaned-svg SVG-svg" height="16" width="16" xmlns="http://www.w3.org/2000/svg" viewBox="0 0 16 16" name="BF"><g fill="none" fill-rule="evenodd"><path fill="#E25950" d="M1.994 2A1.998 1.998 0 0 0 0 3.998V8h16V3.998A1.997 1.997 0 0 0 14.006 2H1.994Z"></path><path fill="#24B47E" d="M0 8v4.002C0 13.106.895 14 1.994 14h12.012A1.998 1.998 0 0 0 16 12.002V8H0Z"></path><path fill="#FCD669" d="M7.78 9.785 5.444 11.19l.623-2.601L4 6.658l2.612-.115L7.78 4l1.168 2.543 2.612.115-2.067 1.931.623 2.601z"></path></g></svg>