<svg class="SVGInline-svg SVGInline--cleaned-svg SVG-svg" height="16" width="16" xmlns="http://www.w3.org/2000/svg" viewBox="0 0 16 16" name="BH"><g fill="none" fill-rule="evenodd"><path fill="#F6F9FC" fill-rule="nonzero" d="M2 2h12a2 2 0 0 1 2 2v8a2 2 0 0 1-2 2H2a2 2 0 0 1-2-2V4a2 2 0 0 1 2-2Z"></path><path fill="#EAEEF3" fill-rule="nonzero" d="M2 3a1 1 0 0 0-1 1v8a1 1 0 0 0 1 1h4v1H2a2 2 0 0 1-2-2V4a2 2 0 0 1 2-2h4v1H2Z"></path><path fill="#E25950" d="M14.003 14H5l1-.5-2-1 2-1-2-1 2-1-2-1 2-1-2-1 2-1-2-1 2-1-2-1L5 2h9.003C15.104 2 16 2.9 16 4.009v7.982A2.005 2.005 0 0 1 14.003 14Z"></path></g></svg>