<svg class="SVGInline-svg SVGInline--cleaned-svg SVG-svg" height="16" width="16" xmlns="http://www.w3.org/2000/svg" viewBox="0 0 16 16" name="BJ"><g fill="none" fill-rule="evenodd"><path fill="#24B47E" d="M1.998 2A2.005 2.005 0 0 0 0 4.009v7.982C0 13.101.898 14 1.998 14H6V2H1.998Z"></path><path fill="#FCD669" d="M14.14 2C15.167 2 16 3.02 16 4.276V8H6V2h8.14Z"></path><path fill="#A68527" fill-opacity="0.1" fill-rule="nonzero" d="M15 8V4a1 1 0 0 0-1-1H6V2h8a2 2 0 0 1 2 2v4h-1Z"></path><path fill="#E25950" d="M16 12.257c0 .961-.832 1.743-1.86 1.743H6V8h10v4.257Z"></path></g></svg>