<svg class="SVGInline-svg SVGInline--cleaned-svg SVG-svg" height="16" width="16" xmlns="http://www.w3.org/2000/svg" viewBox="0 0 16 16" name="BN"><g fill="none" fill-rule="evenodd"><path fill="#FCD669" fill-rule="nonzero" d="M2 2h12a2 2 0 0 1 2 2v8a2 2 0 0 1-2 2H2a2 2 0 0 1-2-2V4a2 2 0 0 1 2-2Z"></path><path fill="#A68527" fill-opacity="0.1" fill-rule="nonzero" d="M15 7V4a1 1 0 0 0-1-1H2a1 1 0 0 0-1 1H0a2 2 0 0 1 2-2h12a2 2 0 0 1 2 2v3h-1zM1 9v3a1 1 0 0 0 1 1h12a1 1 0 0 0 1-1h1a2 2 0 0 1-2 2H2a2 2 0 0 1-2-2V9h1z"></path><path fill="#F6F9FC" d="m0 3.5 16 3v3l-16-3z"></path><path fill="#EAEEF3" d="m15 6.313 1 .187v3l-1-.188v-3ZM1 3.688v3L0 6.5v-3l1 .188Z"></path><path fill="#333" d="m0 6.5 16 3v3l-16-3z"></path><path fill="#E25950" fill-rule="nonzero" d="M8 6a2 2 0 1 1 0 4 2 2 0 0 1 0-4Z"></path></g></svg>