<svg class="SVGInline-svg SVGInline--cleaned-svg SVG-svg" height="16" width="16" xmlns="http://www.w3.org/2000/svg" viewBox="0 0 16 16" name="BO"><g fill="none" fill-rule="evenodd"><path fill="#E25950" d="M1.994 2A1.992 1.992 0 0 0 0 4v2h16V4c0-1.105-.895-2-1.994-2H1.994Z"></path><path fill="#FCD669" d="M0 6h16v4H0z"></path><path fill="#B1372F" fill-rule="nonzero" d="M8 6.5a1.5 1.5 0 1 1 0 3 1.5 1.5 0 0 1 0-3Z"></path><path fill="#A68527" fill-opacity="0.1" fill-rule="nonzero" d="M15 10V6h1v4h-1ZM0 6h1v4H0V6Z"></path><path fill="#24B47E" d="M0 10v2c0 1.105.895 2 1.994 2h12.012A1.992 1.992 0 0 0 16 12v-2H0Z"></path></g></svg>