<svg class="SVGInline-svg SVGInline--cleaned-svg SVG-svg" height="16" width="16" xmlns="http://www.w3.org/2000/svg" viewBox="0 0 16 16" name="BT"><g fill="none" fill-rule="evenodd"><g><path fill="#FCD669" d="M14 14H2a2 2 0 0 1-2-2V4a2 2 0 0 1 2-2h12a2 2 0 0 1 2 2v8a2 2 0 0 1-2 2Z"></path><path fill="#A68527" fill-opacity="0.1" fill-rule="nonzero" d="M2 2h12a2 2 0 0 1 2 2v8a2 2 0 0 1-2 2H2a2 2 0 0 1-2-2V4a2 2 0 0 1 2-2ZM1 12a1 1 0 0 0 1 1h12a1 1 0 0 0 1-1V4a1 1 0 0 0-1-1H2a1 1 0 0 0-1 1v8Z"></path><path fill="#E25950" d="M2 14c-.51 0-.975-.19-1.328-.504L15.328 2.504c.412.367.672.9.672 1.496v8a2 2 0 0 1-2 2H2Z"></path></g><path stroke="#FFF" stroke-linecap="square" stroke-width="2" d="M5 10h2V8h2V6h2"></path></g></svg>