<svg class="SVGInline-svg SVGInline--cleaned-svg SVG-svg" height="16" width="16" xmlns="http://www.w3.org/2000/svg" viewBox="0 0 16 16" name="BZ"><g fill="none" fill-rule="evenodd"><path fill="#E25950" d="M1 2h14c.555 0 1 .448 1 1v1H0V3c0-.556.448-1 1-1ZM0 12h16v1c0 .556-.448 1-1 1H1c-.555 0-1-.448-1-1v-1Z"></path><path fill="#43458B" d="M0 4h16v8H0z"></path><path fill="#FFF" d="M8 11a3 3 0 1 0 0-6 3 3 0 0 0 0 6Z"></path><path fill="#24B47E" d="M8 10a2 2 0 1 0 0-4 2 2 0 0 0 0 4Z"></path></g></svg>