<svg class="SVGInline-svg SVGInline--cleaned-svg SVG-svg" height="16" width="16" xmlns="http://www.w3.org/2000/svg" viewBox="0 0 16 16" name="CD"><g fill="none" fill-rule="evenodd" transform="translate(0 2)"><rect width="16" height="12" fill="#FCD669" rx="2"></rect><path fill="#A68527" fill-opacity="0.1" d="M10 0h4v1h-4V0ZM3 11h4v1H3v-1ZM0 5h1v4H0V5Zm15-2h1v3h-1V3Z"></path><path fill="#E25950" d="M16 3 3 12H2a2 2 0 0 1-2-2V9l13.5-9h.5a2 2 0 0 1 2 2v1Z"></path><path fill="#45B2E8" d="M2.003 0H11.5L0 7.5V2.01A2 2 0 0 1 2.003 0ZM16 9.99c0 1.11-.9 2.01-1.992 2.01H5l11-7.5v5.49Z"></path><rect width="2" height="2" x="2" y="1" fill="#FCD669" rx="1"></rect></g></svg>