<svg class="SVGInline-svg SVGInline--cleaned-svg SVG-svg" height="16" width="16" xmlns="http://www.w3.org/2000/svg" viewBox="0 0 16 16" name="CF"><g fill="none" fill-rule="evenodd" transform="translate(0 2)"><path fill="#43458B" d="M1.994 0h12.012C15.106 0 16 .895 16 2v1H0V2C0 .888.893 0 1.994 0Z"></path><rect width="1" height="1" x="2" y="1" fill="#FCD669" rx="0.5"></rect><path fill="#F6F9FC" d="M0 3h16v3H0z"></path><path fill="#24B47E" d="M0 6h16v3H0z"></path><path fill="#EAEEF3" fill-rule="nonzero" d="M15 6V3h1v3h-1ZM0 3h1v3H0V3Z"></path><path fill="#FCD669" d="M0 9h16v1c0 1.112-.893 2-1.994 2H1.994C.894 12 0 11.105 0 10V9Z"></path><path fill="#A68527" fill-opacity="0.1" fill-rule="nonzero" d="M15 9v1a1 1 0 0 1-1 1H2c-.555 0-1-.447-1-1V9H0v1c0 1.106.893 2 2 2h12a2 2 0 0 0 2-2V9h-1Z"></path><path fill="#E25950" d="M6 0h4v12H6z"></path></g></svg>