<svg class="SVGInline-svg SVGInline--cleaned-svg SVG-svg" height="16" width="16" xmlns="http://www.w3.org/2000/svg" viewBox="0 0 16 16" name="CG"><g fill="none" fill-rule="evenodd" transform="translate(0 2)"><rect width="16" height="12" fill="#FCD669" rx="2"></rect><path fill="#24B47E" d="M.183 10.832A2.011 2.011 0 0 1 0 9.992V2a2 2 0 0 1 2-2h10L.183 10.832Z"></path><path fill="#E25950" d="M15.817 1.168c.117.255.183.54.183.84V10a2 2 0 0 1-2 2H4L15.817 1.168Z"></path><path fill="#A68527" fill-opacity="0.1" fill-rule="nonzero" d="M16 2.009c0-.3-.066-.586-.183-.841l-.82.752A1 1 0 0 0 14 1h-3.09L12 0h2a2 2 0 0 1 2 2v.009ZM0 10c0 .3.066.585.183.84l.82-.751a1 1 0 0 0 .997.92h3.09l-1.09 1H2a2 2 0 0 1-2-2V10Z"></path></g></svg>