<svg class="SVGInline-svg SVGInline--cleaned-svg SVG-svg" height="16" width="16" xmlns="http://www.w3.org/2000/svg" viewBox="0 0 16 16" name="CM"><g fill="none" fill-rule="evenodd"><path fill="#159570" d="M2.005 2A2.008 2.008 0 0 0 0 4.009v7.982C0 13.101.894 14 2.005 14H5V2H2.005Z"></path><path fill="#FCD669" d="M11 2v12h2.995A2.008 2.008 0 0 0 16 11.991V4.01C16 2.899 15.106 2 13.995 2H11Z"></path><path fill="#A68527" fill-opacity="0.1" fill-rule="nonzero" d="M11 3V2h3a2 2 0 0 1 2 2v8a2 2 0 0 1-2 2h-3v-1h3a1 1 0 0 0 1-1V4a1 1 0 0 0-1-1h-3Z"></path><path fill="#E25950" d="M5 2h6v12H5z"></path><path fill="#FCD669" fill-rule="nonzero" d="m10.296 7.167-1.458.003a.202.202 0 0 1-.193-.14l-.452-1.388a.202.202 0 0 0-.386 0l-.45 1.387a.202.202 0 0 1-.193.14h-1.46a.202.202 0 0 0-.118.368l1.18.857a.202.202 0 0 1 .073.227l-.45 1.388a.202.202 0 0 0 .312.227l1.18-.792a.202.202 0 0 1 .239 0l1.18.792a.202.202 0 0 0 .313-.227L9.161 8.62a.202.202 0 0 1 .074-.227l1.18-.857a.205.205 0 0 0-.12-.37Z"></path></g></svg>