<svg class="SVGInline-svg SVGInline--cleaned-svg SVG-svg" height="16" width="16" xmlns="http://www.w3.org/2000/svg" viewBox="0 0 16 16" name="CN"><g fill="none" fill-rule="evenodd" transform="translate(0 2)"><rect width="16" height="12" fill="#E25950" rx="2"></rect><path fill="#FCD669" d="M7 1.5a.5.5 0 1 1 1 0 .5.5 0 0 1-1 0Zm1 2a.5.5 0 1 1 1 0 .5.5 0 0 1-1 0Zm0 2a.5.5 0 1 1 1 0 .5.5 0 0 1-1 0Zm-1 2a.5.5 0 1 1 1 0 .5.5 0 0 1-1 0ZM3.471 5.963 1.715 6.971l.435-1.969L.971 3.525l1.772-.098L3.47 1.9l.73 1.527 1.77.098-1.179 1.477.492 1.97-1.813-1.01Z"></path></g></svg>