<svg class="SVGInline-svg SVGInline--cleaned-svg SVG-svg" height="16" width="16" xmlns="http://www.w3.org/2000/svg" viewBox="0 0 16 16" name="DJ"><g fill="none" fill-rule="evenodd" transform="translate(0 2)"><rect width="16" height="12" fill="#45B2E8" rx="2"></rect><path fill="#24B47E" d="M0 6v4.002C0 11.106.895 12 1.994 12h12.012A1.998 1.998 0 0 0 16 10.002V6H0Z"></path><path fill="#F6F9FC" d="M.7 11.52A2.01 2.01 0 0 1 0 9.99V2.01C0 1.395.275.844.707.475a.504.504 0 0 1 .07.039L9 5.996.777 11.478a.5.5 0 0 1-.076.042Z"></path><path fill="#EAEEF3" d="M1.619 1.075A1 1 0 0 0 1 2v8a1 1 0 0 0 .611.922l-.834.556a.5.5 0 0 1-.076.042A2.01 2.01 0 0 1 0 9.99V2.01C0 1.395.275.844.707.475a.504.504 0 0 1 .07.039l.842.561Z"></path><circle cx="4" cy="6" r="1" fill="#E25950"></circle></g></svg>