<svg class="SVGInline-svg SVGInline--cleaned-svg SVG-svg" height="16" width="16" xmlns="http://www.w3.org/2000/svg" viewBox="0 0 16 16" name="DM"><g fill="none" fill-rule="evenodd" transform="translate(0 2)"><rect width="16" height="12" fill="#159570" rx="2"></rect><path fill="#FCD669" d="M6 0h1v12H6z"></path><path fill="#FCD669" d="M0 4h16v1H0z"></path><path fill="#F6F9FC" d="M0 7h16v1H0z"></path><path fill="#333" d="M0 5h16v2H0z"></path><path fill="#333" d="M7 0h2v12H7z"></path><path fill="#F6F9FC" d="M9 0h1v12H9z"></path><path fill="#E25950" fill-rule="nonzero" d="M8 3a3 3 0 1 1 0 6 3 3 0 0 1 0-6Z"></path><path fill="#A68527" fill-opacity="0.1" d="M6 0h1v1H6V0Zm0 11h1v1H6v-1ZM0 4h1v1H0V4Zm15 0h1v1h-1V4Z"></path><path fill="#EAEEF3" d="M9 0h1v1H9V0Zm0 11h1v1H9v-1ZM0 7h1v1H0V7Zm15 0h1v1h-1V7Z"></path></g></svg>