<svg class="SVGInline-svg SVGInline--cleaned-svg SVG-svg" height="16" width="16" xmlns="http://www.w3.org/2000/svg" viewBox="0 0 16 16" name="DO"><g fill="none" fill-rule="evenodd"><g fill-rule="nonzero"><path fill="#E25950" d="M2 2h12a2 2 0 0 1 2 2v8a2 2 0 0 1-2 2H2a2 2 0 0 1-2-2V4a2 2 0 0 1 2-2Z"></path><path fill="#43458B" d="M2 2h5v5H0V4a2 2 0 0 1 2-2Zm12 12H9V9h7v3a2 2 0 0 1-2 2Z"></path><path fill="#FFF" d="M16 9H9v5H7V9H0V7h7V2h2v5h7z"></path><path fill="#EAEEF3" d="M15 9V7h1v2h-1Zm-8 4h2v1H7v-1ZM7 2h2v1H7V2ZM0 7h1v2H0V7Z"></path></g><circle cx="8" cy="8" r="1" fill="#24B47E"></circle></g></svg>