<svg class="SVGInline-svg SVGInline--cleaned-svg SVG-svg" height="16" width="16" xmlns="http://www.w3.org/2000/svg" viewBox="0 0 16 16" name="DZ"><g fill="none" fill-rule="evenodd"><path fill="#F6F9FC" d="M8 2v12h6.002A2.005 2.005 0 0 0 16 11.991V4.01C16 2.899 15.113 2 14.002 2H8Z"></path><path fill="#24B47E" d="M1.998 2A2.005 2.005 0 0 0 0 4.009v7.982C0 13.101.887 14 1.998 14H8V2H1.998Z"></path><path fill="#E25950" d="M10.655 6.602a2.42 2.42 0 0 0-1.922-.935c-1.325 0-2.4 1.044-2.4 2.333 0 1.289 1.075 2.333 2.4 2.333a2.42 2.42 0 0 0 1.922-.935 3 3 0 1 1 0-2.796ZM10 9a1 1 0 1 1 0-2 1 1 0 0 1 0 2Z"></path><path fill="#EAEEF3" fill-rule="nonzero" d="M14 3a1 1 0 0 1 1 1v8a1 1 0 0 1-1 1H8v1h6a2 2 0 0 0 2-2V4a2 2 0 0 0-2-2H8v1h6Z"></path></g></svg>