<svg class="SVGInline-svg SVGInline--cleaned-svg SVG-svg" height="16" width="16" xmlns="http://www.w3.org/2000/svg" viewBox="0 0 16 16" name="EC"><g fill="none" fill-rule="evenodd" transform="translate(0 2)"><path fill="#FCD669" d="M1.994 0A1.998 1.998 0 0 0 0 1.998V6h16V1.998A1.997 1.997 0 0 0 14.006 0H1.994Z"></path><path fill="#A68527" fill-opacity="0.1" fill-rule="nonzero" d="M15 6V2a1 1 0 0 0-1-1H2a1 1 0 0 0-1 1v4H0V2a2 2 0 0 1 2-2h12a2 2 0 0 1 2 2v4h-1Z"></path><path fill="#43458B" d="M0 6h16v3H0z"></path><path fill="#E25950" d="M0 9v1.5c0 .828.667 1.5 1.505 1.5h12.99A1.5 1.5 0 0 0 16 10.5V9H0Z"></path><path fill="#B1372F" fill-rule="nonzero" d="M6.882 4.25H5.708a2.5 2.5 0 0 1 4.583 0H9.118a1.5 1.5 0 0 0-2.236 0Z"></path><circle cx="8" cy="6" r="1.5" fill="#FFF"></circle></g></svg>