<svg class="SVGInline-svg SVGInline--cleaned-svg SVG-svg" height="16" width="16" xmlns="http://www.w3.org/2000/svg" viewBox="0 0 16 16" name="ER"><g fill="none" fill-rule="evenodd" transform="translate(0 2)"><rect width="16" height="12" fill="#F6F9FC" rx="2"></rect><path fill="#24B47E" d="M0 2v4h16V2a2 2 0 0 0-2-2H2a2 2 0 0 0-2 2Z"></path><path fill="#45B2E8" d="M0 8v2c0 1.105.895 2 1.994 2h12.012A1.992 1.992 0 0 0 16 10V6H0v2Z"></path><path fill="#E25950" d="M.7 11.52A2.01 2.01 0 0 1 0 9.99V2.01C0 1.395.275.844.707.475a.504.504 0 0 1 .07.039L16 5.996.777 11.478a.5.5 0 0 1-.076.042Z"></path><path fill="#FCD669" fill-rule="nonzero" d="M4 8a2 2 0 1 0 0-4 2 2 0 0 0 0 4Zm0 1a3 3 0 1 1 0-6 3 3 0 0 1 0 6Z"></path><path fill="#FCD669" d="M3.5 4h1v4h-1z"></path></g></svg>