<svg class="SVGInline-svg SVGInline--cleaned-svg SVG-svg" height="16" width="16" xmlns="http://www.w3.org/2000/svg" viewBox="0 0 16 16" name="FO"><g fill="none"><path fill="#F6F9FC" d="M2 2h12a2 2 0 0 1 2 2v8a2 2 0 0 1-2 2H2a2 2 0 0 1-2-2V4a2 2 0 0 1 2-2Z"></path><path fill="#EAEEF3" d="M14 14H2a2 2 0 0 1-2-2V4a2 2 0 0 1 2-2h12a2 2 0 0 1 2 2v8a2 2 0 0 1-2 2Zm1-10a1 1 0 0 0-1-1H2a1 1 0 0 0-1 1v8a1 1 0 0 0 1 1h12a1 1 0 0 0 1-1V4Z"></path><path fill="#43458B" d="M16 10H8v4H4v-4H0V6h4V2h4v4h8z"></path><path fill="#E25950" d="M16 9H7v5H5V9H0V7h5V2h2v5h9z"></path></g></svg>