<svg class="SVGInline-svg SVGInline--cleaned-svg SVG-svg" height="16" width="16" xmlns="http://www.w3.org/2000/svg" viewBox="0 0 16 16" name="GH"><g fill="none" fill-rule="evenodd"><path fill="#E25950" d="M1.994 2A1.992 1.992 0 0 0 0 4v2h16V4c0-1.105-.895-2-1.994-2H1.994Z"></path><path fill="#FCD669" d="M0 6h16v4H0z"></path><path fill="#A68527" fill-opacity="0.1" fill-rule="nonzero" d="M15 10V6h1v4h-1ZM0 6h1v4H0V6Z"></path><path fill="#24B47E" d="M0 10v2c0 1.105.895 2 1.994 2h12.012A1.992 1.992 0 0 0 16 12v-2H0Z"></path><path fill="#333" fill-rule="nonzero" d="m10.296 7.167-1.458.003a.202.202 0 0 1-.193-.14l-.452-1.388a.202.202 0 0 0-.386 0l-.45 1.387a.202.202 0 0 1-.193.14h-1.46a.202.202 0 0 0-.118.368l1.18.857a.202.202 0 0 1 .073.227l-.45 1.388a.202.202 0 0 0 .312.227l1.18-.792a.202.202 0 0 1 .239 0l1.18.792a.202.202 0 0 0 .313-.227L9.161 8.62a.202.202 0 0 1 .074-.227l1.18-.857a.205.205 0 0 0-.12-.37Z"></path></g></svg>