<svg class="SVGInline-svg SVGInline--cleaned-svg SVG-svg" height="16" width="16" xmlns="http://www.w3.org/2000/svg" viewBox="0 0 16 16" name="GL"><g fill="none" fill-rule="evenodd"><path fill="#F6F9FC" d="M1.994 2A1.998 1.998 0 0 0 0 3.998V8h16V3.998A1.997 1.997 0 0 0 14.006 2H1.994Z"></path><path fill="#EAEEF3" fill-rule="nonzero" d="M14 2a2 2 0 0 1 2 2v4h-1V4a1 1 0 0 0-1-1H2a1 1 0 0 0-1 1v4H0V4a2 2 0 0 1 2-2h12Z"></path><path fill="#E25950" d="M3 8a2 2 0 1 0 4 0h9v4.002c0 1.1-.893 1.998-1.994 1.998H1.994C.894 14 0 13.106 0 12.002V8h3Z" opacity="0.9"></path><path fill="#E25950" fill-rule="nonzero" d="M7 8H3a2 2 0 1 1 4 0Z"></path></g></svg>