<svg class="SVGInline-svg SVGInline--cleaned-svg SVG-svg" height="16" width="16" xmlns="http://www.w3.org/2000/svg" viewBox="0 0 16 16" name="GM"><g fill="none" fill-rule="evenodd"><path fill="#F6F9FC" d="M0 5h16v6H0z"></path><path fill="#EAEEF3" fill-rule="nonzero" d="M15 11V5h1v6h-1ZM0 5h1v6H0V5Z"></path><path fill="#E25950" d="M1.505 2A1.5 1.5 0 0 0 0 3.5V5h16V3.5c0-.828-.667-1.5-1.505-1.5H1.505Z"></path><path fill="#43458B" d="M0 6h16v4H0z"></path><path fill="#24B47E" d="M0 11v1.5c0 .828.667 1.5 1.505 1.5h12.99A1.5 1.5 0 0 0 16 12.5V11H0Z"></path></g></svg>