<svg class="SVGInline-svg SVGInline--cleaned-svg SVG-svg" height="16" width="16" xmlns="http://www.w3.org/2000/svg" viewBox="0 0 16 16" name="GQ"><g fill="none" fill-rule="evenodd" transform="translate(0 2)"><rect width="16" height="12" fill="#F6F9FC" rx="2"></rect><circle cx="8" cy="6" r="1" fill="#CFD7DF" opacity="0.9"></circle><path fill="#EAEEF3" fill-rule="nonzero" d="M15 8V4h1v4z"></path><path fill="#24B47E" d="M0 2v2h16V2a2 2 0 0 0-2-2H2a2 2 0 0 0-2 2Z"></path><path fill="#E25950" d="M0 8v2c0 1.105.895 2 1.994 2h12.012A1.992 1.992 0 0 0 16 10V8H0Z"></path><path fill="#45B2E8" d="M.7 11.52A2.01 2.01 0 0 1 0 9.99V2.01C0 1.395.275.844.707.475a.504.504 0 0 1 .07.039L5 5.996.777 11.478a.5.5 0 0 1-.076.042Z"></path></g></svg>