<svg class="SVGInline-svg SVGInline--cleaned-svg SVG-svg" height="16" width="16" xmlns="http://www.w3.org/2000/svg" viewBox="0 0 16 16" name="GR"><path fill="#43458B" d="M14 14H2a2 2 0 0 1-2-2V4a2 2 0 0 1 2-2h12a2 2 0 0 1 2 2v8a2 2 0 0 1-2 2Z"></path><path fill="#fff" d="M6.66 3.333H16v1.333H6.66zM6.66 6H16v1.333H6.66zM0 8.667h16V10H0zm0 2.666h16v1.333H0z"></path><path fill="#fff" fill-rule="evenodd" d="M2.668 4.668V2h1.334v2.668H6.67v1.334H4.002V8.67H2.668V6.002H0V4.668h2.668Z" clip-rule="evenodd"></path><path fill="#43458B" fill-opacity="0.1" fill-rule="evenodd" d="M2 14h12a2 2 0 0 0 2-2V4a2 2 0 0 0-2-2H2a2 2 0 0 0-2 2v8a2 2 0 0 0 2 2ZM14 3a1 1 0 0 1 1 1v8a1 1 0 0 1-1 1H2a1 1 0 0 1-1-1V4a1 1 0 0 1 1-1h12Z" clip-rule="evenodd"></path></svg>