<svg class="SVGInline-svg SVGInline--cleaned-svg SVG-svg" height="16" width="16" xmlns="http://www.w3.org/2000/svg" viewBox="0 0 16 16" name="HN"><g fill="none" fill-rule="evenodd"><path fill="#45B2E8" d="M1.994 2h12.012C15.106 2 16 2.895 16 4v2H0V4c0-1.112.893-2 1.994-2ZM0 10h16v2c0 1.112-.893 2-1.994 2H1.994C.894 14 0 13.105 0 12v-2Z"></path><path fill="#F6F9FC" d="M0 6h16v4H0z"></path><path fill="#EAEEF3" fill-rule="nonzero" d="M15 10V6h1v4h-1ZM0 6h1v4H0V6Z"></path><path fill="#45B2E8" d="M7.5 8a.5.5 0 1 1 1 0 .5.5 0 0 1-1 0ZM5 7a.5.5 0 1 1 1 0 .5.5 0 0 1-1 0Zm0 2a.5.5 0 1 1 1 0 .5.5 0 0 1-1 0Zm5 0a.5.5 0 1 1 1 0 .5.5 0 0 1-1 0Zm0-2a.5.5 0 1 1 1 0 .5.5 0 0 1-1 0Z"></path></g></svg>