<svg class="SVGInline-svg SVGInline--cleaned-svg SVG-svg" height="16" width="16" xmlns="http://www.w3.org/2000/svg" viewBox="0 0 16 16" name="JO"><g fill="none" fill-rule="evenodd" transform="translate(0 2)"><rect width="16" height="12" fill="#333" rx="2"></rect><path fill="#24B47E" d="M0 8v2c0 1.105.895 2 1.994 2h12.012A1.992 1.992 0 0 0 16 10V8H0Z"></path><path fill="#F6F9FC" d="M0 4h16v4H0z"></path><path fill="#EAEEF3" fill-rule="nonzero" d="M15 8V4h1v4z"></path><path fill="#E25950" d="M.649 11.473A2.01 2.01 0 0 1 0 9.991V2.01C0 1.419.253.889.656.52A.5.5 0 0 1 .8.596l7.2 5.4-7.2 5.4a.5.5 0 0 1-.151.077Z"></path><circle cx="3" cy="6" r="1" fill="#F6F9FC"></circle></g></svg>