<svg class="SVGInline-svg SVGInline--cleaned-svg SVG-svg" height="16" width="16" xmlns="http://www.w3.org/2000/svg" viewBox="0 0 16 16" name="KE"><g fill="none" fill-rule="evenodd"><path fill="#F6F9FC" d="M0 5h16v6H0z"></path><path fill="#EAEEF3" fill-rule="nonzero" d="M15 11V5h1v6h-1ZM0 5h1v6H0V5Z"></path><path fill="#333" d="M1.505 2A1.5 1.5 0 0 0 0 3.5V5h16V3.5c0-.828-.667-1.5-1.505-1.5H1.505Z"></path><path fill="#E25950" d="M0 6h16v4H0z"></path><path fill="#159570" d="M0 11v1.5c0 .828.667 1.5 1.505 1.5h12.99A1.5 1.5 0 0 0 16 12.5V11H0Z"></path><path fill="#E25950" fill-rule="nonzero" d="M8 5a3 3 0 1 1 0 6 3 3 0 0 1 0-6Z"></path><path fill="#333" fill-rule="nonzero" d="M10 5.764c.614.55 1 1.348 1 2.236 0 .888-.386 1.687-1 2.236C9.386 9.686 9 8.888 9 8c0-.888.386-1.687 1-2.236Zm-4 0c.614.55 1 1.348 1 2.236 0 .888-.386 1.687-1 2.236C5.386 9.686 5 8.888 5 8c0-.888.386-1.687 1-2.236Z"></path></g></svg>