<svg class="SVGInline-svg SVGInline--cleaned-svg SVG-svg" height="16" width="16" xmlns="http://www.w3.org/2000/svg" viewBox="0 0 16 16" name="KG"><g fill="none" fill-rule="evenodd" transform="translate(0 2)"><rect width="16" height="12" fill="#E25950" rx="2"></rect><path fill="#FCD669" d="M10.5 9a.5.5 0 1 1 0-1 .5.5 0 0 1 0 1Zm-5-5a.5.5 0 1 1 0-1 .5.5 0 0 1 0 1Zm5 0a.5.5 0 1 1 0-1 .5.5 0 0 1 0 1Zm-5 5a.5.5 0 1 1 0-1 .5.5 0 0 1 0 1ZM8 3a.5.5 0 1 1 0-1 .5.5 0 0 1 0 1ZM4.5 6.5a.5.5 0 1 1 0-1 .5.5 0 0 1 0 1ZM8 10a.5.5 0 1 1 0-1 .5.5 0 0 1 0 1Zm3.5-3.5a.5.5 0 1 1 0-1 .5.5 0 0 1 0 1ZM8 8a2 2 0 1 1 0-4 2 2 0 0 1 0 4Z"></path></g></svg>