<svg class="SVGInline-svg SVGInline--cleaned-svg SVG-svg" height="16" width="16" xmlns="http://www.w3.org/2000/svg" viewBox="0 0 16 16" name="KI"><g fill="none"><path fill="#43458B" d="M14 14H2a2 2 0 0 1-2-2V4a2 2 0 0 1 2-2h12a2 2 0 0 1 2 2v8a2 2 0 0 1-2 2Z"></path><path fill="#E25950" d="M0 8V4a2 2 0 0 1 2-2h12a2 2 0 0 1 2 2v4H0Z"></path><path fill="#FCD669" d="M10 8H6a2 2 0 1 1 4 0ZM6 4h4v1H6V4Z"></path><path fill="#F6F9FC" d="M0 10h16v1H0v-1Zm0-2h16v1H0V8Zm.268 5A1.99 1.99 0 0 1 0 12h16c0 .364-.097.706-.268 1H.268Z"></path><path fill="#43458B" fill-opacity="0.1" d="M14 14H2a2 2 0 0 1-2-2V8h1v4a1 1 0 0 0 1 1h12a1 1 0 0 0 1-1V8h1v4a2 2 0 0 1-2 2Z"></path></g></svg>