<svg class="SVGInline-svg SVGInline--cleaned-svg SVG-svg" height="16" width="16" xmlns="http://www.w3.org/2000/svg" viewBox="0 0 16 16" name="KM"><g fill="none" fill-rule="evenodd" transform="translate(0 2)"><rect width="16" height="12" fill="#FCD669" rx="2"></rect><path fill="#A68527" fill-opacity="0.1" fill-rule="nonzero" d="M15 5V2a1 1 0 0 0-1-1H2a1 1 0 0 0-1 1H0a2 2 0 0 1 2-2h12a2 2 0 0 1 2 2v3h-1Z"></path><path fill="#217AB7" d="M0 9h16v1c0 1.112-.893 2-1.994 2H1.994C.894 12 0 11.105 0 10V9Z"></path><path fill="#F6F9FC" d="M0 3h16v3H0z"></path><path fill="#E25950" d="M0 6h16v3H0z"></path><path fill="#EAEEF3" fill-rule="nonzero" d="M15 6V3h1v3z"></path><path fill="#24B47E" d="M.649 11.473A2.01 2.01 0 0 1 0 9.991V2.01C0 1.419.253.889.656.52A.5.5 0 0 1 .8.596l7.2 5.4-7.2 5.4a.5.5 0 0 1-.151.077Z"></path><path fill="#FFF" d="M4 4.268a1.75 1.75 0 1 0 0 3.464 2 2 0 1 1 0-3.464Z"></path></g></svg>