<svg class="SVGInline-svg SVGInline--cleaned-svg SVG-svg" height="16" width="16" xmlns="http://www.w3.org/2000/svg" viewBox="0 0 16 16" name="LB"><g fill="none" fill-rule="evenodd"><path fill="#E25950" d="M1.505 2h12.99C15.333 2 16 2.672 16 3.5V5H0V3.5A1.5 1.5 0 0 1 1.505 2ZM0 11h16v1.5a1.5 1.5 0 0 1-1.505 1.5H1.505A1.498 1.498 0 0 1 0 12.5V11Z"></path><path fill="#F6F9FC" d="M0 5h16v6H0z"></path><path fill="#EAEEF3" fill-rule="nonzero" d="M15 11V5h1v6h-1ZM0 5h1v6H0V5Z"></path><path fill="#24B47E" d="m8 6-2.5 4h5z"></path></g></svg>