<svg class="SVGInline-svg SVGInline--cleaned-svg SVG-svg" height="16" width="16" xmlns="http://www.w3.org/2000/svg" viewBox="0 0 16 16" name="LK"><g fill="none" fill-rule="evenodd"><g><path fill="#F4B32E" fill-rule="nonzero" d="M2 2h12a2 2 0 0 1 2 2v8a2 2 0 0 1-2 2H2a2 2 0 0 1-2-2V4a2 2 0 0 1 2-2Z"></path><path fill="#E37C4C" d="M3 3h2v10H3z"></path><path fill="#B1372F" d="M6 3h8a1 1 0 0 1 1 1v8a1 1 0 0 1-1 1H6V3Zm1 1v1h1V4H7Zm6 0v1h1V4h-1Zm-6 7v1h1v-1H7Zm6 0v1h1v-1h-1ZM8 7v2h5V7H8Z"></path></g><path fill="#159570" d="M2 3h1v10H2a1 1 0 0 1-1-1V4a1 1 0 0 1 1-1Z"></path></g></svg>