<svg class="SVGInline-svg SVGInline--cleaned-svg SVG-svg" height="16" width="16" xmlns="http://www.w3.org/2000/svg" viewBox="0 0 16 16" name="LY"><g fill="none" fill-rule="evenodd"><path fill="#333" fill-rule="nonzero" d="M0 5h16v6H0z"></path><path fill="#FFF" d="M8 6.268a1.75 1.75 0 1 0 0 3.464 2 2 0 1 1 0-3.464ZM9 9a1 1 0 1 1 0-2 1 1 0 0 1 0 2Z"></path><path fill="#E25950" fill-rule="nonzero" d="M0 5V4a2 2 0 0 1 2-2h12a2 2 0 0 1 2 2v1H0Z"></path><path fill="#24B47E" d="M14 14H2a2 2 0 0 1-2-2v-1h16v1a2 2 0 0 1-2 2Z"></path></g></svg>