<svg class="SVGInline-svg SVGInline--cleaned-svg SVG-svg" height="16" width="16" xmlns="http://www.w3.org/2000/svg" viewBox="0 0 16 16" name="MN"><g fill="none" fill-rule="evenodd"><path fill="#E25950" d="M2.005 2H5v12H2.005C.894 14 0 13.1 0 11.991V4.01A2.01 2.01 0 0 1 2.005 2ZM11 2h2.995C15.106 2 16 2.9 16 4.009v7.982A2.008 2.008 0 0 1 13.995 14H11V2Z"></path><path fill="#FCD669" d="M1 8h1v4H1V8Zm1.5-1a1.5 1.5 0 1 1 0-3 1.5 1.5 0 0 1 0 3ZM3 8h1v4H3V8Z"></path><path fill="#45B2E8" d="M5 2h6v12H5z"></path></g></svg>