<svg class="SVGInline-svg SVGInline--cleaned-svg SVG-svg" height="16" width="16" xmlns="http://www.w3.org/2000/svg" viewBox="0 0 16 16" name="MO"><g fill="none" fill-rule="evenodd" transform="translate(0 2)"><rect width="16" height="12" fill="#159570" rx="2"></rect><path fill="#FFF" d="M7.403 7.153A1.748 1.748 0 0 1 8 5a1.748 1.748 0 0 1 .623 2.093 1.748 1.748 0 0 1 2 .657 1.748 1.748 0 0 1-2.687.225A1.748 1.748 0 0 1 5.25 7.75a1.748 1.748 0 0 1 2.153-.597Z"></path><path fill="#FCD669" d="M5 5.5a.5.5 0 1 1 1 0 .5.5 0 0 1-1 0Zm1-1a.5.5 0 1 1 1 0 .5.5 0 0 1-1 0ZM7.5 4a.5.5 0 1 1 1 0 .5.5 0 0 1-1 0Zm1.5.5a.5.5 0 1 1 1 0 .5.5 0 0 1-1 0Zm1 1a.5.5 0 1 1 1 0 .5.5 0 0 1-1 0Z"></path></g></svg>