<svg class="SVGInline-svg SVGInline--cleaned-svg SVG-svg" height="16" width="16" xmlns="http://www.w3.org/2000/svg" viewBox="0 0 16 16" name="MU"><g fill="none" fill-rule="evenodd"><path fill="#E25950" d="M1.994 2h12.012C15.106 2 16 2.896 16 4.001V5H0v-.999A2 2 0 0 1 1.994 2Z"></path><path fill="#FCD669" d="M0 8h16v3H0z"></path><path fill="#43458B" d="M0 5h16v3H0z"></path><path fill="#A68527" fill-opacity="0.1" fill-rule="nonzero" d="M15 11V8h1v3h-1ZM0 8h1v3H0V8Z"></path><path fill="#24B47E" d="M0 11h16v1c0 1.112-.893 2-1.994 2H1.994C.894 14 0 13.105 0 12v-1Z"></path></g></svg>