<svg class="SVGInline-svg SVGInline--cleaned-svg SVG-svg" height="16" width="16" xmlns="http://www.w3.org/2000/svg" viewBox="0 0 16 16" name="MY"><path fill="#E25950" d="M14 14H2a2 2 0 0 1-2-2V4a2 2 0 0 1 2-2h12a2 2 0 0 1 2 2v8a2 2 0 0 1-2 2Z"></path><path fill="#F6F9FC" d="M0 3.091h16v1.091H0zm0 2.182h16v1.091H0zm0 2.182h16v1.091H0zm0 2.181h16v1.091H0zm0 2.182h16v1.091H0z"></path><path fill="#E25950" d="M14 14H2a2 2 0 0 1-2-2V8h1v4a1 1 0 0 0 1 1h12a1 1 0 0 0 1-1V4a1 1 0 0 0-1-1H8V2h6a2 2 0 0 1 2 2v8a2 2 0 0 1-2 2Z" opacity="0.1"></path><path fill="#43458B" d="M0 8.55V3.871C0 2.838.796 2 1.778 2H8v6.55H0Z"></path><path fill="#FCD669" fill-rule="evenodd" d="M4 3.543a1.75 1.75 0 1 0 0 3.464 2 2 0 1 1 0-3.464Zm2 2.732a1 1 0 1 1 0-2 1 1 0 0 1 0 2Z" clip-rule="evenodd"></path></svg>