<svg class="SVGInline-svg SVGInline--cleaned-svg SVG-svg" height="16" width="16" xmlns="http://www.w3.org/2000/svg" viewBox="0 0 16 16" name="NR"><g fill="none" fill-rule="evenodd" transform="translate(0 2)"><path fill="#43458B" d="M1.994 0h12.012A2 2 0 0 1 16 2.005V5H0V2.005C0 .894.893 0 1.994 0ZM0 7h16v2.995A1.997 1.997 0 0 1 14.006 12H1.994A2 2 0 0 1 0 9.995V7Z"></path><circle cx="4.5" cy="9.5" r="1.5" fill="#FFF"></circle><path fill="#FCD669" d="M0 5h16v2H0z"></path><path fill="#A68527" fill-opacity="0.1" fill-rule="nonzero" d="M14.933 7V5H16v2h-1.067ZM0 5h1.067v2H0V5Z"></path></g></svg>