<svg class="SVGInline-svg SVGInline--cleaned-svg SVG-svg" height="16" width="16" xmlns="http://www.w3.org/2000/svg" viewBox="0 0 16 16" name="OM"><g fill="none" fill-rule="evenodd"><path fill="#F6F9FC" d="M4 2h9.991C15.098 2 16 2.895 16 4v2H4V2Z"></path><path fill="#EAEEF3" fill-rule="nonzero" d="M15 6V4a1 1 0 0 0-1-1H4V2h10a2 2 0 0 1 2 2v2h-1Z"></path><path fill="#E25950" d="M2 2h2v12H2a2 2 0 0 1-2-2.009V4.01C0 2.902.895 2 2 2Z"></path><path fill="#B1372F" fill-opacity="0.2" d="M3 2h1v12H3z"></path><path fill="#E25950" d="M4 6h12v4H4z"></path><path fill="#24B47E" d="M4 10h12v2a2 2 0 0 1-2.009 2H4v-4Z"></path><path fill="#FFF" d="M1 4a1 1 0 1 1 2 0 1 1 0 0 1-2 0Z"></path></g></svg>