<svg class="SVGInline-svg SVGInline--cleaned-svg SVG-svg" height="16" width="16" xmlns="http://www.w3.org/2000/svg" viewBox="0 0 16 16" name="PF"><g fill="none" fill-rule="evenodd"><path fill="#F6F9FC" fill-rule="nonzero" d="M0 5h16v6H0z"></path><path fill="#217AB7" fill-rule="nonzero" d="M8 10a2 2 0 0 1-2-2h4a2 2 0 0 1-2 2Z"></path><path fill="#FCD669" fill-rule="nonzero" d="M8 6a2 2 0 0 0-2 2h4a2 2 0 0 0-2-2Z"></path><path fill="#EAEEF3" fill-rule="nonzero" d="M15 11V5h1v6h-1ZM0 5h1v6H0V5Z"></path><path fill="#E25950" d="M16 4v1H0V4a2 2 0 0 1 2-2h12a2 2 0 0 1 2 2ZM0 12v-1h16v1a2 2 0 0 1-2 2H2a2 2 0 0 1-2-2Z"></path></g></svg>