<svg class="SVGInline-svg SVGInline--cleaned-svg SVG-svg" height="16" width="16" xmlns="http://www.w3.org/2000/svg" viewBox="0 0 16 16" name="PK"><g fill="none" fill-rule="evenodd"><path fill="#F6F9FC" fill-rule="nonzero" d="M2 2h12a2 2 0 0 1 2 2v8a2 2 0 0 1-2 2H2a2 2 0 0 1-2-2V4a2 2 0 0 1 2-2Z"></path><path fill="#EAEEF3" fill-rule="nonzero" d="M2 3a1 1 0 0 0-1 1v8a1 1 0 0 0 1 1h3v1H2a2 2 0 0 1-2-2V4a2 2 0 0 1 2-2h3v1H2Z"></path><path fill="#159570" d="M5 2v12h9.008c1.1 0 1.992-.902 1.992-2.009V4.01C16 2.899 15.1 2 14.008 2H5Z"></path><path fill="#FFF" d="M8.678 4.743a4.5 4.5 0 0 0 5.58 5.58 4 4 0 1 1-5.58-5.58ZM13 7a1 1 0 1 1 0-2 1 1 0 0 1 0 2Z"></path></g></svg>