<svg class="SVGInline-svg SVGInline--cleaned-svg SVG-svg" height="16" width="16" xmlns="http://www.w3.org/2000/svg" viewBox="0 0 16 16" name="PR"><g fill="none" fill-rule="evenodd" transform="translate(0 2)"><rect width="16" height="12" fill="#E25950" rx="2"></rect><path fill="#E25950" d="M0 9h16v1c0 1.112-.893 2-1.994 2H1.994C.894 12 0 11.105 0 10V9z"></path><path fill="#F6F9FC" d="M0 3h16v2H0z"></path><path fill="#EAEEF3" fill-rule="nonzero" d="M15 5V3h1v2z"></path><path fill="#F6F9FC" d="M0 7h16v2H0z"></path><path fill="#EAEEF3" fill-rule="nonzero" d="M15 9V7h1v2z"></path><path fill="#43458B" d="M.649 11.473A2.01 2.01 0 0 1 0 9.991V2.01C0 1.419.253.889.656.52A.5.5 0 0 1 .8.596l7.2 5.4-7.2 5.4a.5.5 0 0 1-.151.077z"></path><path fill="#FFF" fill-rule="nonzero" d="m4.747 5.302-1.14.003a.158.158 0 0 1-.15-.11l-.353-1.084a.158.158 0 0 0-.302 0l-.351 1.084a.158.158 0 0 1-.151.11H1.16a.158.158 0 0 0-.093.286l.922.67c.055.04.079.112.057.178l-.352 1.084a.158.158 0 0 0 .245.177l.921-.618a.16.16 0 0 1 .187 0l.922.618a.158.158 0 0 0 .245-.177L3.86 6.439a.158.158 0 0 1 .057-.178l.922-.67a.16.16 0 0 0-.093-.29z"></path></g></svg>