<svg class="SVGInline-svg SVGInline--cleaned-svg SVG-svg" height="16" width="16" xmlns="http://www.w3.org/2000/svg" viewBox="0 0 16 16" name="SC"><g fill="none" fill-rule="evenodd"><path fill="#E25950" fill-rule="nonzero" d="M2 2h12a2 2 0 0 1 2 2v8a2 2 0 0 1-2 2H2a2 2 0 0 1-2-2V4a2 2 0 0 1 2-2Z"></path><path fill="#43458B" fill-rule="nonzero" d="M2 2h3L.358 13.142A1.99 1.99 0 0 1 0 12V4a2 2 0 0 1 2-2Z"></path><path fill="#FCD669" d="M5 2h6L.56 13.389a2.01 2.01 0 0 1-.202-.247L5 2Z"></path><path fill="#FCD669" d="M5 2h6L.56 13.389a2.01 2.01 0 0 1-.202-.247L5 2Z"></path><path fill="#A68527" fill-opacity="0.1" fill-rule="nonzero" d="m11 2-.917 1h-5.5L5 2z"></path><path fill="#F6F9FC" fill-rule="nonzero" d="M16 6v4L.555 13.382a2.005 2.005 0 0 1-.339-.477L16 6Z"></path><path fill="#159570" fill-rule="nonzero" d="M16 12a2 2 0 0 1-2 2H2a2 2 0 0 1-1.758-1.045L16 10v2Z"></path><path fill="#EAEEF3" fill-rule="nonzero" d="M16 6v4l-1 .156V6.438z"></path></g></svg>