<svg class="SVGInline-svg SVGInline--cleaned-svg SVG-svg" height="16" width="16" xmlns="http://www.w3.org/2000/svg" viewBox="0 0 16 16" name="SM"><g fill="none" fill-rule="evenodd" transform="translate(0 2)"><path fill="#F6F9FC" d="M1.994 0A1.998 1.998 0 0 0 0 1.998V6h16V1.998A1.997 1.997 0 0 0 14.006 0H1.994Z"></path><path fill="#EAEEF3" fill-rule="nonzero" d="M14 0a2 2 0 0 1 2 2v4h-1V2a1 1 0 0 0-1-1H2a1 1 0 0 0-1 1v4H0V2a2 2 0 0 1 2-2h12Z"></path><path fill="#217AB7" d="M0 6v4.002C0 11.106.895 12 1.994 12h12.012A1.998 1.998 0 0 0 16 10.002V6H0Z"></path><circle cx="8" cy="6" r="2" fill="#F4B32E"></circle></g></svg>