<svg class="SVGInline-svg SVGInline--cleaned-svg SVG-svg" height="16" width="16" xmlns="http://www.w3.org/2000/svg" viewBox="0 0 16 16" name="SN"><g fill="none" fill-rule="evenodd"><path fill="#24B47E" d="M2.005 2H5v12H2.005C.894 14 0 13.1 0 11.991V4.01A2.01 2.01 0 0 1 2.005 2Z"></path><path fill="#E25950" d="M11 2h2.995C15.106 2 16 2.9 16 4.009v7.982A2.008 2.008 0 0 1 13.995 14H11V2Z"></path><path fill="#FCD669" d="M5 2h6v12H5z"></path><path fill="#A68527" fill-opacity="0.1" fill-rule="nonzero" d="M5 14v-1h6v1H5ZM5 2h6v1H5V2Z"></path><path fill="#24B47E" fill-rule="nonzero" d="m10.296 7.167-1.458.003a.202.202 0 0 1-.193-.14l-.452-1.388a.202.202 0 0 0-.386 0l-.45 1.387a.202.202 0 0 1-.193.14h-1.46a.202.202 0 0 0-.118.368l1.18.857a.202.202 0 0 1 .073.227l-.45 1.388a.202.202 0 0 0 .312.227l1.18-.792a.202.202 0 0 1 .239 0l1.18.792a.202.202 0 0 0 .313-.227L9.161 8.62a.202.202 0 0 1 .074-.227l1.18-.857a.205.205 0 0 0-.12-.37Z"></path></g></svg>