<svg class="SVGInline-svg SVGInline--cleaned-svg SVG-svg" height="16" width="16" xmlns="http://www.w3.org/2000/svg" viewBox="0 0 16 16" name="SR"><g fill="none" fill-rule="evenodd"><path fill="#F6F9FC" d="M0 5h16v6H0z"></path><path fill="#EAEEF3" fill-rule="nonzero" d="M15 11V5h1v6h-1ZM0 5h1v6H0V5Z"></path><path fill="#159570" d="M1.505 2h12.99C15.333 2 16 2.672 16 3.5V5H0V3.5A1.5 1.5 0 0 1 1.505 2ZM0 11h16v1.5a1.5 1.5 0 0 1-1.505 1.5H1.505A1.498 1.498 0 0 1 0 12.5V11Z"></path><path fill="#E25950" d="M0 6h16v4H0z"></path><path fill="#FCD669" fill-rule="nonzero" d="m9.747 7.302-1.14.003a.158.158 0 0 1-.15-.11l-.353-1.084a.158.158 0 0 0-.302 0l-.351 1.084a.158.158 0 0 1-.151.11H6.16a.158.158 0 0 0-.093.286l.922.67c.055.04.079.112.057.178l-.352 1.084a.158.158 0 0 0 .245.177l.921-.618a.16.16 0 0 1 .187 0l.922.618a.158.158 0 0 0 .245-.177L8.86 8.439a.158.158 0 0 1 .057-.178l.922-.67a.16.16 0 0 0-.093-.29Z"></path></g></svg>