<svg class="SVGInline-svg SVGInline--cleaned-svg SVG-svg" height="16" width="16" xmlns="http://www.w3.org/2000/svg" viewBox="0 0 16 16" name="ST"><g fill="none" fill-rule="evenodd" transform="translate(0 2)"><rect width="16" height="12" fill="#FCD669" rx="2"></rect><path fill="#333" d="M8 7a1 1 0 1 1 0-2 1 1 0 0 1 0 2Zm4 0a1 1 0 1 1 0-2 1 1 0 0 1 0 2Z" opacity="0.9"></path><path fill="#A68527" fill-opacity="0.1" fill-rule="nonzero" d="M15 8V4h1v4z"></path><path fill="#24B47E" d="M0 2a2 2 0 0 1 2-2h12a2 2 0 0 1 2 2v2H0V2Zm0 6h16v2c0 1.112-.893 2-1.994 2H1.994C.894 12 0 11.105 0 10V8Z"></path><path fill="#E25950" d="M.7 11.52A2.01 2.01 0 0 1 0 9.99V2.01C0 1.395.275.844.707.475a.504.504 0 0 1 .07.039L5 5.996.777 11.478a.5.5 0 0 1-.076.042Z"></path></g></svg>