<svg class="SVGInline-svg SVGInline--cleaned-svg SVG-svg" height="16" width="16" viewBox="0 0 16 16" fill="none" xmlns="http://www.w3.org/2000/svg" name="SX"><path d="M.64 2.54A2 2 0 0 0 0 4v8a2 2 0 0 0 .64 1.46l.36-.3V2.84l-.36-.3Z" fill="#EAEEF3"></path><path d="M1 2.84v10.32L7.11 8 1 2.84Z" fill="#F6F9FC"></path><path d="M.64 2.54A2 2 0 0 1 2 2h12a2 2 0 0 1 2 2v4H7.11L.64 2.54Z" fill="#E25950"></path><path d="M.64 13.46A2 2 0 0 0 2 14h12a2 2 0 0 0 2-2V8H7.11L.64 13.46Z" fill="#43458B"></path><path d="M2.75 9.75a1.75 1.75 0 1 0 0-3.5 1.75 1.75 0 0 0 0 3.5Z" fill="#45B2E8"></path></svg>