<svg class="SVGInline-svg SVGInline--cleaned-svg SVG-svg" height="16" width="16" viewBox="0 0 16 16" fill="none" xmlns="http://www.w3.org/2000/svg" name="TA"><path d="M14 2H2a2 2 0 0 0-2 2v8a2 2 0 0 0 2 2h12a2 2 0 0 0 2-2V4a2 2 0 0 0-2-2Z" fill="#43458B"></path><path d="M1.35 5.96H0V4.04h3v-.11L.75 2.44a2 2 0 0 1 .94-.41L3 2.88V2h2v2.04h.05L8 2.08v1.04l-1.38.92H8v1.92H5v.09l2.93 1.94H6.36L5 7.09V8H3V5.96h-.08L0 7.9V6.85l1.35-.89Z" fill="#fff"></path><path d="M3 3.93v.1H1.59L.2 3.13c.13-.26.32-.5.55-.68L3 3.93Zm2-.88L6.59 2H8v.1L5.08 4.04H5v-.99ZM2.92 5.96H3v1L1.41 8H0v-.1l2.92-1.94Zm3.5 0L8 7.01V8h-.08L5 6.07v-.1l1.42-.01ZM8 5.43H4.44V8h-.88V5.43H0v-.86h3.56V2h.88v2.57H8v.86Z" fill="#E25950"></path><circle cx="10.5" cy="8.5" r="1.5" fill="#F79A59"></circle><circle cx="13.5" cy="8.5" r="1.5" fill="#F79A59"></circle><path d="M14 8.78V8h-4v.78c0 .59.21 1.15.59 1.57.37.42.88.65 1.41.65a1.9 1.9 0 0 0 1.41-.65c.38-.42.59-.98.59-1.57Z" fill="#fff"></path><path d="M10 6h4v2h-4V6Z" fill="#45B2E8"></path></svg>