<svg class="SVGInline-svg SVGInline--cleaned-svg SVG-svg" height="16" width="16" xmlns="http://www.w3.org/2000/svg" viewBox="0 0 16 16" name="TF"><g fill="none" fill-rule="evenodd"><path fill="#43458B" fill-rule="nonzero" d="M2 2h12a2 2 0 0 1 2 2v8a2 2 0 0 1-2 2H2a2 2 0 0 1-2-2V4a2 2 0 0 1 2-2Z"></path><path fill="#43458B" d="M2 2h1v6H0V4a2 2 0 0 1 2-2Z"></path><path fill="#F6F9FC" d="M3 2h3v6H3z"></path><path fill="#EAEEF3" d="M3 2h3v1H3z"></path><path fill="#E25950" d="M6 2h3v6H6z"></path><path fill="#FFF" d="M9 8V2h.5v6.5H0V8z"></path><path fill="#FFF" fill-rule="nonzero" d="M12.5 10V9H11V8h4v1h-1.5v1H15v1h-1.5v1.437a2.004 2.004 0 0 1-1 0V11H11v-1h1.5Z"></path></g></svg>