<svg class="SVGInline-svg SVGInline--cleaned-svg SVG-svg" height="16" width="16" xmlns="http://www.w3.org/2000/svg" viewBox="0 0 16 16" name="TJ"><g fill="none" fill-rule="evenodd"><path fill="#E25950" d="M1.994 2A1.992 1.992 0 0 0 0 4v2h16V4c0-1.105-.895-2-1.994-2H1.994Z"></path><path fill="#F6F9FC" fill-rule="nonzero" d="M0 6h16v4H0z"></path><path fill="#EAEEF3" fill-rule="nonzero" d="M15 10V6h1v4h-1ZM0 6h1v4H0V6Z"></path><path fill="#24B47E" d="M0 10v2c0 1.105.895 2 1.994 2h12.012A1.992 1.992 0 0 0 16 12v-2H0Z"></path><path fill="#FCD669" d="M5 8.5a.5.5 0 1 1 1 0 .5.5 0 0 1-1 0Zm1-1a.5.5 0 1 1 1 0 .5.5 0 0 1-1 0ZM7.5 7a.5.5 0 1 1 1 0 .5.5 0 0 1-1 0Zm1.5.5a.5.5 0 1 1 1 0 .5.5 0 0 1-1 0Zm1 1a.5.5 0 1 1 1 0 .5.5 0 0 1-1 0Zm-2.5 0a.5.5 0 1 1 1 0 .5.5 0 0 1-1 0Z"></path></g></svg>