<svg class="SVGInline-svg SVGInline--cleaned-svg SVG-svg" height="16" width="16" xmlns="http://www.w3.org/2000/svg" viewBox="0 0 16 16" name="TL"><g fill="none" fill-rule="evenodd" transform="translate(0 2)"><rect width="16" height="12" fill="#E25950" rx="2"></rect><path fill="#FCD669" d="M0 10.038V1.964c.017-.52.429-.8.935-.604L13 6 .935 10.64c-.506.195-.918-.074-.934-.602Z"></path><path fill="#333" d="M.664 11.488A2.01 2.01 0 0 1 0 9.99V2.01C0 1.415.257.88.665.512.708.535.75.564.796.597L8 6 .796 11.403a1.03 1.03 0 0 1-.132.085Z"></path><circle cx="3" cy="6" r="1" fill="#F7FAFC"></circle></g></svg>