<svg class="SVGInline-svg SVGInline--cleaned-svg SVG-svg" height="16" width="16" xmlns="http://www.w3.org/2000/svg" viewBox="0 0 16 16" name="TT"><g fill="none" fill-rule="evenodd"><path fill="#F6F9FC" d="M16 4v8a2 2 0 0 1-2 2H2a2 2 0 0 1-2-2V4a2 2 0 0 1 2-2h12a2 2 0 0 1 2 2Z"></path><path fill="#EAEEF3" fill-rule="nonzero" d="M16 8v4a2 2 0 0 1-2 2H9v-1h5a1 1 0 0 0 1-1V8h1ZM0 8V4a2 2 0 0 1 2-2h5v1H2a1 1 0 0 0-1 1v4H0Z"></path><path fill="#333" d="M0 5V4a2 2 0 0 1 2-2h.5L16 11v1a2 2 0 0 1-2 2h-1L0 5Z"></path><path fill="#E25950" d="M13.997 2A2 2 0 0 1 16 4.01V9.5L4.5 2h9.497ZM0 11.99V6.5L11 14H1.992C.9 14 0 13.1 0 11.99Z"></path></g></svg>