<svg class="SVGInline-svg SVGInline--cleaned-svg SVG-svg" height="16" width="16" xmlns="http://www.w3.org/2000/svg" viewBox="0 0 16 16" name="TZ"><g fill="none" fill-rule="evenodd" transform="translate(0 2)"><rect width="16" height="12" fill="#FCD669" rx="2"></rect><path fill="#A68527" fill-opacity="0.1" fill-rule="nonzero" d="M0 6h1v4a1 1 0 0 0 1 1h5v1H2a2 2 0 0 1-2-2V6Zm16 0h-1V2a1 1 0 0 0-1-1H9V0h5a2 2 0 0 1 2 2v4Z"></path><path fill="#333" d="M16 3 3 12H2a2 2 0 0 1-2-2V9l13.5-9h.5a2 2 0 0 1 2 2v1Z"></path><path fill="#24B47E" d="M2.003 0A2 2 0 0 0 0 2.01V7.5L11.5 0H2.003Z"></path><path fill="#45B2E8" d="M16 9.99c0 1.11-.9 2.01-1.992 2.01H5l11-7.5v5.49Z"></path></g></svg>