<svg class="SVGInline-svg SVGInline--cleaned-svg SVG-svg" height="16" width="16" xmlns="http://www.w3.org/2000/svg" viewBox="0 0 16 16" name="UG"><g fill="none" fill-rule="evenodd" transform="translate(0 2)"><path fill="#333" d="M1.994 0h12.012C15.106 0 16 .896 16 2.001H0A2 2 0 0 1 1.994 0ZM0 6h16v2H0V6Z"></path><path fill="#FCD669" d="M0 2h16v2H0V2Zm0 6h16v2H0V8Z"></path><path fill="#E25950" d="M0 4h16v2H0V4Zm16 6c0 1.112-.893 2-1.994 2H1.994C.894 12 0 11.105 0 10h16Z"></path><path fill="#A68527" fill-opacity="0.1" fill-rule="nonzero" d="M15 4V2h1v2h-1ZM0 2h1v2H0V2Zm15 8V8h1v2h-1ZM0 8h1v2H0V8Z"></path><circle cx="8" cy="6" r="1" fill="#F7FAFC"></circle></g></svg>