<svg class="SVGInline-svg SVGInline--cleaned-svg SVG-svg" height="16" width="16" xmlns="http://www.w3.org/2000/svg" viewBox="0 0 16 16" name="US"><path fill="#E25950" d="M14 14H2a2 2 0 0 1-2-2V4a2 2 0 0 1 2-2h12a2 2 0 0 1 2 2v8a2 2 0 0 1-2 2Z"></path><path fill="#F6F9FC" d="M0 3.091h16v1.091H0zm0 2.182h16v1.091H0zm0 2.182h16v1.091H0zm0 2.181h16v1.091H0zm0 2.182h16v1.091H0z"></path><path fill="#E25950" d="M14 14H2a2 2 0 0 1-2-2V8.5h1V12a1 1 0 0 0 1 1h12a1 1 0 0 0 1-1V4a1 1 0 0 0-1-1H8V2h6a2 2 0 0 1 2 2v8a2 2 0 0 1-2 2Z" opacity="0.1"></path><path fill="#43458B" d="M0 8.55V3.871C0 2.838.796 2 1.778 2H8v6.55H0Z"></path><path fill="#fff" fill-rule="evenodd" d="M1.482 2a.5.5 0 1 1 .036 1 .5.5 0 0 1-.036-1Zm2 0a.5.5 0 1 1 .036 1 .5.5 0 0 1-.036-1Zm2 0a.5.5 0 1 1 .036 1 .5.5 0 0 1-.036-1Zm2 0a.5.5 0 1 1 .036 1 .5.5 0 0 1-.036-1Zm-7 1.11a.5.5 0 1 1 .036 1 .5.5 0 0 1-.036-1Z" clip-rule="evenodd" opacity="0.5"></path><path fill="#fff" d="M3 3.61a.5.5 0 1 1-1 0 .5.5 0 0 1 1 0Zm2 0a.5.5 0 1 1-1 0 .5.5 0 0 1 1 0Zm2 0a.5.5 0 1 1-1 0 .5.5 0 0 1 1 0ZM1.519 5.22a.5.5 0 1 1-.038-1 .5.5 0 0 1 .038 1Zm2 0a.5.5 0 1 1-.038-1 .5.5 0 0 1 .038 1Zm2 0a.5.5 0 1 1-.038-1 .5.5 0 0 1 .038 1Z"></path><path fill="#fff" fill-rule="evenodd" d="M7.482 4.22a.5.5 0 1 1 .036 1 .5.5 0 0 1-.036-1Zm-7 1.11a.5.5 0 1 1 .036 1 .5.5 0 0 1-.036-1Z" clip-rule="evenodd" opacity="0.5"></path><path fill="#fff" d="M3 5.83a.5.5 0 1 1-1 0 .5.5 0 0 1 1 0Zm2 0a.5.5 0 1 1-1 0 .5.5 0 0 1 1 0Zm2 0a.5.5 0 1 1-1 0 .5.5 0 0 1 1 0Zm-5.518.61a.5.5 0 1 1 .036 1 .5.5 0 0 1-.036-1Zm2 0a.5.5 0 1 1 .036 1 .5.5 0 0 1-.036-1Zm2 0a.5.5 0 1 1 .036 1 .5.5 0 0 1-.036-1Z"></path><path fill="#fff" fill-rule="evenodd" d="M7.482 6.44a.5.5 0 1 1 .036 1 .5.5 0 0 1-.036-1Zm-7 1.11a.5.5 0 1 1 .036 1 .5.5 0 0 1-.036-1Zm2 0a.5.5 0 1 1 .036 1 .5.5 0 0 1-.036-1Zm2 0a.5.5 0 1 1 .036 1 .5.5 0 0 1-.036-1Zm2 0a.5.5 0 1 1 .036 1 .5.5 0 0 1-.036-1Z" clip-rule="evenodd" opacity="0.5"></path></svg>