<svg class="SVGInline-svg SVGInline--cleaned-svg SVG-svg" height="16" width="16" xmlns="http://www.w3.org/2000/svg" viewBox="0 0 16 16" name="UZ"><g fill="none" fill-rule="evenodd"><g transform="translate(0 2)"><path fill="#217AB7" d="M1.994 0h12.012C15.106 0 16 .895 16 2v2H0V2C0 .888.893 0 1.994 0Z"></path><circle cx="3" cy="2" r="1" fill="#FFF"></circle><path fill="#F6F9FC" fill-rule="nonzero" d="M0 4h16v4H0z"></path><path fill="#EAEEF3" fill-rule="nonzero" d="M15 8V4h1v4h-1ZM0 4h1v4H0V4Z"></path><path fill="#24B47E" d="M0 8h16v2c0 1.112-.893 2-1.994 2H1.994C.894 12 0 11.105 0 10V8Z"></path></g><path fill="#E25950" d="M0 6h16v1H0zm0 3h16v1H0z"></path></g></svg>