<svg class="SVGInline-svg SVGInline--cleaned-svg SVG-svg" height="16" width="16" xmlns="http://www.w3.org/2000/svg" viewBox="0 0 16 16" name="VA"><g fill="none" fill-rule="evenodd"><path fill="#F6F9FC" d="M8 2v12h6.002A2.005 2.005 0 0 0 16 11.991V4.01C16 2.899 15.113 2 14.002 2H8Z"></path><path fill="#FCD669" d="M1.998 2A2.005 2.005 0 0 0 0 4.009v7.982C0 13.101.887 14 1.998 14H8V2H1.998Z"></path><path fill="#EAEEF3" fill-rule="nonzero" d="M14 3H8V2h6a2 2 0 0 1 2 2v8a2 2 0 0 1-2 2H8v-1h6a1 1 0 0 0 1-1V4a1 1 0 0 0-1-1Z"></path><path fill="#A68527" fill-opacity="0.1" fill-rule="nonzero" d="M2 3a1 1 0 0 0-1 1v8a1 1 0 0 0 1 1h6v1H2a2 2 0 0 1-2-2V4a2 2 0 0 1 2-2h6v1H2Z"></path><path fill="#CFD7DF" fill-rule="nonzero" d="M13.5 10.165A.5.5 0 1 0 13 9.3a.5.5 0 0 0 .5.866ZM10.933 4.72l2.043 3.538a1.5 1.5 0 1 1-.866.5l-1.543-2.672-.866.5-.5-.866 1.732-1Z"></path><path fill="#FCD669" fill-rule="nonzero" d="M10 10.165a.5.5 0 1 0 .5-.866.5.5 0 0 0-.5.866Zm2.567-5.446 1.732 1-.5.866-.866-.5-1.543 2.672a1.5 1.5 0 1 1-.866-.5l2.043-3.538Z"></path></g></svg>