<svg class="SVGInline-svg SVGInline--cleaned-svg SVG-svg" height="16" width="16" xmlns="http://www.w3.org/2000/svg" viewBox="0 0 16 16" name="VE"><g fill="none" fill-rule="evenodd"><path fill="#FCD669" d="M1.994 2A1.992 1.992 0 0 0 0 4v2h16V4c0-1.105-.895-2-1.994-2H1.994Z"></path><path fill="#A68527" fill-opacity="0.1" fill-rule="nonzero" d="M15 6V4a1 1 0 0 0-1-1H2a1 1 0 0 0-1 1v2H0V4a2 2 0 0 1 2-2h12a2 2 0 0 1 2 2v2h-1Z"></path><path fill="#E25950" d="M0 10v2c0 1.105.895 2 1.994 2h12.012A1.992 1.992 0 0 0 16 12v-2H0Z"></path><path fill="#43458B" d="M0 6h16v4H0z"></path><path fill="#FFF" d="M4.5 8.5a.5.5 0 1 1 1 0 .5.5 0 0 1-1 0ZM6 8a.5.5 0 1 1 1 0 .5.5 0 0 1-1 0Zm1.5-.5a.5.5 0 1 1 1 0 .5.5 0 0 1-1 0ZM9 8a.5.5 0 1 1 1 0 .5.5 0 0 1-1 0Zm1.5.5a.5.5 0 1 1 1 0 .5.5 0 0 1-1 0Z"></path></g></svg>