<svg class="SVGInline-svg SVGInline--cleaned-svg SVG-svg" height="16" width="16" xmlns="http://www.w3.org/2000/svg" viewBox="0 0 16 16" name="WS"><g fill="none" fill-rule="evenodd"><path fill="#E25950" fill-rule="nonzero" d="M2 2h12a2 2 0 0 1 2 2v8a2 2 0 0 1-2 2H2a2 2 0 0 1-2-2V4a2 2 0 0 1 2-2Z"></path><path fill="#43458B" d="M2 2h7v7H0V4a2 2 0 0 1 2-2Z"></path><path fill="#FFF" fill-rule="nonzero" d="M5 5.5a.5.5 0 1 1 1 0 .5.5 0 0 1-1 0Zm-1 2a.5.5 0 1 1 1 0 .5.5 0 0 1-1 0Zm-.933-3.75a.5.5 0 1 1 .866-.5.5.5 0 0 1-.866.5ZM2 5.5c0-.276.22-.5.49-.5a.489.489 0 0 1 .441.245.508.508 0 0 1 0 .51.489.489 0 0 1-.44.245A.495.495 0 0 1 2 5.5Z"></path></g></svg>