<svg
        width="23"
        height="26"
        viewBox="0 0 23 26"
        fill="none"
        xmlns="http://www.w3.org/2000/svg"
      >
        <g clip-path="url(#clip0_86_514)">
          <path
            d="M11.5051 7.16025C8.2399 7.16025 5.60619 9.76533 5.60619 12.995C5.60619 16.2247 8.2399 18.8298 11.5051 18.8298C14.7703 18.8298 17.404 16.2247 17.404 12.995C17.404 9.76533 14.7703 7.16025 11.5051 7.16025ZM11.5051 16.7884C9.39503 16.7884 7.67003 15.0872 7.67003 12.995C7.67003 10.9028 9.3899 9.20166 11.5051 9.20166C13.6203 9.20166 15.3401 10.9028 15.3401 12.995C15.3401 15.0872 13.6151 16.7884 11.5051 16.7884ZM19.0212 6.92158C19.0212 7.67822 18.4051 8.28252 17.6453 8.28252C16.8803 8.28252 16.2694 7.67314 16.2694 6.92158C16.2694 6.17002 16.8854 5.56064 17.6453 5.56064C18.4051 5.56064 19.0212 6.17002 19.0212 6.92158ZM22.9281 8.30283C22.8408 6.47979 22.4198 4.86494 21.0696 3.53447C19.7245 2.204 18.0919 1.7876 16.2488 1.69619C14.3493 1.58955 8.65575 1.58955 6.7562 1.69619C4.91825 1.78252 3.28566 2.19893 1.93544 3.52939C0.585212 4.85986 0.169364 6.47471 0.0769531 8.29775C-0.0308594 10.1767 -0.0308594 15.8083 0.0769531 17.6872C0.16423 19.5103 0.585212 21.1251 1.93544 22.4556C3.28566 23.786 4.91311 24.2024 6.7562 24.2938C8.65575 24.4005 14.3493 24.4005 16.2488 24.2938C18.0919 24.2075 19.7245 23.7911 21.0696 22.4556C22.4147 21.1251 22.8357 19.5103 22.9281 17.6872C23.0359 15.8083 23.0359 10.1817 22.9281 8.30283ZM20.4741 19.7032C20.0736 20.6985 19.2984 21.4653 18.287 21.8665C16.7725 22.4606 13.1787 22.3235 11.5051 22.3235C9.83142 22.3235 6.23253 22.4556 4.72316 21.8665C3.71691 21.4704 2.94169 20.7036 2.53611 19.7032C1.93544 18.2052 2.07405 14.6505 2.07405 12.995C2.07405 11.3396 1.94057 7.77979 2.53611 6.28682C2.93655 5.2915 3.71177 4.52471 4.72316 4.12353C6.23767 3.52939 9.83142 3.6665 11.5051 3.6665C13.1787 3.6665 16.7776 3.53447 18.287 4.12353C19.2933 4.51963 20.0685 5.28643 20.4741 6.28682C21.0747 7.78486 20.9361 11.3396 20.9361 12.995C20.9361 14.6505 21.0747 18.2103 20.4741 19.7032Z"
            fill="black"
          />
        </g>
        <defs>
          <clipPath id="clip0_86_514">
            <rect width="23" height="26" fill="black" />
          </clipPath>
        </defs>
      </svg>